# xmcd
#
# Track frame offsets: 
#        150
#        17496
#        31679
#        49439
#        59668
#        81505
#        98653
#        129798
#        146220
#        157655
#        170963
#        194270
#        204993
#        209238
#
# Disc length: 3001 seconds
#
# Revision: 2
# Processed by: cddbd v1.5.2PL0 Copyright (c) Steve Scherf et al.
# Submitted via: ExactAudioCopy v0.95a5
#
DISCID=c80bb70e
DTITLE=Curtis Knight and The Squires - You Can't Use My Name: The RSVP-P
DTITLE=PX Sessions
DYEAR=2015
DGENRE=Rhythm and Blues
TTITLE0=How Would You Feel
TTITLE1=Gotta Have a New Dress
TTITLE2=Don't Accuse Me
TTITLE3=Fool For You Baby
TTITLE4=No Such Animal
TTITLE5=Welcome Home
TTITLE6=Knock Yourself Out (Flying on Instruments)
TTITLE7=Simon Says
TTITLE8=Station Break
TTITLE9=Strange Things
TTITLE10=Hornet's Nest
TTITLE11=You Don't Want Me
TTITLE12=You Can't Use My Name
TTITLE13=Gloomy Monday
EXTD=
EXTT0=
EXTT1=
EXTT2=
EXTT3=
EXTT4=
EXTT5=
EXTT6=
EXTT7=
EXTT8=
EXTT9=
EXTT10=
EXTT11=
EXTT12=
EXTT13=
PLAYORDER=
